<svg width="264" height="114" viewBox="0 0 264 114" fill="none" xmlns="http://www.w3.org/2000/svg">
<path opacity="0.6" d="M215.958 -15.915C207.74 36.375 158.689 72.1024 106.399 63.8845C54.1092 55.6666 18.3817 6.61528 26.5997 -45.6747C34.8176 -97.9646 83.8689 -133.692 136.159 -125.474C188.449 -117.256 224.176 -68.2049 215.958 -15.915ZM28.0198 -45.4515C19.9252 6.05413 55.1167 54.3697 106.622 62.4643C158.128 70.5589 206.443 35.3674 214.538 -16.1382C222.633 -67.6438 187.441 -115.959 135.936 -124.054C84.43 -132.149 36.1145 -96.9571 28.0198 -45.4515Z" fill="#0089C9" fill-opacity="0.26"/>
<path opacity="0.5" d="M244.374 -10.875C233.536 58.0912 168.841 105.213 99.8747 94.374C30.9085 83.5353 -16.2131 18.8406 -5.37432 -50.1256C5.46443 -119.092 70.1591 -166.213 139.125 -155.375C208.092 -144.536 255.213 -79.8412 244.374 -10.875ZM-4.12558 -49.9294C-14.8559 18.3472 31.7944 82.3949 100.071 93.1253C168.348 103.856 232.395 57.2053 243.126 -11.0713C253.856 -79.3478 207.206 -143.396 138.929 -154.126C70.6525 -164.856 6.60478 -118.206 -4.12558 -49.9294Z" fill="#0089C9" fill-opacity="0.26"/>
</svg>
