<svg width="254" height="68" viewBox="0 0 254 68" fill="none" xmlns="http://www.w3.org/2000/svg">
<path opacity="0.6" d="M240.957 159.085C232.739 211.375 183.688 247.102 131.398 238.884C79.1082 230.667 43.3808 181.615 51.5987 129.325C59.8166 77.0354 108.868 41.3079 161.158 49.5258C213.448 57.7437 249.175 106.795 240.957 159.085ZM53.0189 129.549C44.9242 181.054 80.1158 229.37 131.621 237.464C183.127 245.559 231.443 210.367 239.537 158.862C247.632 107.356 212.44 59.0407 160.935 50.946C109.429 42.8514 61.1135 78.0429 53.0189 129.549Z" fill="#0089C9" fill-opacity="0.26"/>
<path opacity="0.5" d="M269.373 164.125C258.535 233.091 193.84 280.213 124.874 269.374C55.9076 258.535 8.78594 193.841 19.6247 124.874C30.4635 55.9082 95.1582 8.78655 164.124 19.6253C233.091 30.4641 280.212 95.1588 269.373 164.125ZM20.8734 125.071C10.1431 193.347 56.7935 257.395 125.07 268.125C193.347 278.856 257.394 232.205 268.125 163.929C278.855 95.6522 232.205 31.6044 163.928 20.874C95.6516 10.1437 31.6038 56.7941 20.8734 125.071Z" fill="#0089C9" fill-opacity="0.26"/>
</svg>
