<svg width="14" height="20" viewBox="0 0 14 20" fill="none" xmlns="http://www.w3.org/2000/svg">
<path d="M7 0.5C10.5923 0.5 13.4998 3.3956 13.5 6.96191C13.5 9.2108 12.4677 11.7289 11.1875 13.9453C9.91402 16.15 8.43451 17.9897 7.625 18.8643L7.58398 18.9082L7.55566 18.96C7.14013 19.7039 6.0516 19.6722 5.68066 18.9062L5.6582 18.8604L5.62695 18.8193C4.3902 17.2093 3.10367 15.2171 2.12793 13.1328C1.14945 11.0427 0.5 8.89437 0.5 6.96191C0.500223 3.3956 3.40774 0.5 7 0.5ZM7 3.21289C4.92243 3.21289 3.23365 4.88903 3.2334 6.96191C3.2334 9.03502 4.92228 10.7119 7 10.7119C9.07772 10.7119 10.7666 9.03502 10.7666 6.96191C10.7663 4.88903 9.07757 3.21289 7 3.21289Z" fill="url(#paint0_linear_118_1468)"/>
<path d="M7 0.5C10.5923 0.5 13.4998 3.3956 13.5 6.96191C13.5 9.2108 12.4677 11.7289 11.1875 13.9453C9.91402 16.15 8.43451 17.9897 7.625 18.8643L7.58398 18.9082L7.55566 18.96C7.14013 19.7039 6.0516 19.6722 5.68066 18.9062L5.6582 18.8604L5.62695 18.8193C4.3902 17.2093 3.10367 15.2171 2.12793 13.1328C1.14945 11.0427 0.5 8.89437 0.5 6.96191C0.500223 3.3956 3.40774 0.5 7 0.5ZM7 3.21289C4.92243 3.21289 3.23365 4.88903 3.2334 6.96191C3.2334 9.03502 4.92228 10.7119 7 10.7119C9.07772 10.7119 10.7666 9.03502 10.7666 6.96191C10.7663 4.88903 9.07757 3.21289 7 3.21289Z" stroke="black"/>
<path d="M7 0.5C10.5923 0.5 13.4998 3.3956 13.5 6.96191C13.5 9.2108 12.4677 11.7289 11.1875 13.9453C9.91402 16.15 8.43451 17.9897 7.625 18.8643L7.58398 18.9082L7.55566 18.96C7.14013 19.7039 6.0516 19.6722 5.68066 18.9062L5.6582 18.8604L5.62695 18.8193C4.3902 17.2093 3.10367 15.2171 2.12793 13.1328C1.14945 11.0427 0.5 8.89437 0.5 6.96191C0.500223 3.3956 3.40774 0.5 7 0.5ZM7 3.21289C4.92243 3.21289 3.23365 4.88903 3.2334 6.96191C3.2334 9.03502 4.92228 10.7119 7 10.7119C9.07772 10.7119 10.7666 9.03502 10.7666 6.96191C10.7663 4.88903 9.07757 3.21289 7 3.21289Z" stroke="black" stroke-opacity="0.2"/>
<defs>
<linearGradient id="paint0_linear_118_1468" x1="0" y1="10" x2="14" y2="10" gradientUnits="userSpaceOnUse">
<stop stop-color="#46CAF5"/>
<stop offset="1" stop-color="#46D3DD"/>
</linearGradient>
</defs>
</svg>
