<svg width="16" height="11" viewBox="0 0 16 11" fill="none" xmlns="http://www.w3.org/2000/svg">
<path d="M7.69413 1.39893C10.3451 1.39893 12.7093 2.88879 13.8634 5.246C12.7093 7.6032 10.3521 9.09306 7.69413 9.09306C5.03616 9.09306 2.67895 7.6032 1.52484 5.246C2.67895 2.88879 5.04315 1.39893 7.69413 1.39893ZM7.69413 0C4.1968 0 1.21008 2.17534 0 5.246C1.21008 8.31665 4.1968 10.492 7.69413 10.492C11.1915 10.492 14.1782 8.31665 15.3883 5.246C14.1782 2.17534 11.1915 0 7.69413 0ZM7.69413 3.49733C8.65939 3.49733 9.44279 4.28073 9.44279 5.246C9.44279 6.21126 8.65939 6.99466 7.69413 6.99466C6.72886 6.99466 5.94546 6.21126 5.94546 5.246C5.94546 4.28073 6.72886 3.49733 7.69413 3.49733ZM7.69413 2.0984C5.95945 2.0984 4.54653 3.51132 4.54653 5.246C4.54653 6.98067 5.95945 8.39359 7.69413 8.39359C9.4288 8.39359 10.8417 6.98067 10.8417 5.246C10.8417 3.51132 9.4288 2.0984 7.69413 2.0984Z" fill="#262A42"/>
</svg>
